<svg width="512" height="512" viewBox="0 0 512 512" fill="none" xmlns="http://www.w3.org/2000/svg">
<path d="M16.7 1.59999C10.1 3.59999 3.60002 10.4 1.50002 17.3C-0.399979 23.7 -0.399979 26.3 1.60002 33.1C3.10002 38.4 5.80002 41.2 111.8 147.2L220.5 256L111.8 364.7C5.80002 470.8 3.10002 473.6 1.60002 478.9C-0.399979 485.7 -0.399979 488.3 1.60002 494.9C4.40002 504.5 14.7 512 25 512C27 512 30.9 511.3 33.6 510.4C38.1 508.9 47.5 499.8 147.2 400.1L256 291.5L364.8 400.1C468.6 503.9 473.7 508.9 478.9 510.5C491 514.4 503.1 509.3 509.3 497.6C512.3 491.8 512.3 482.1 509.1 476C507.5 472.8 474.9 439.6 399.2 363.8L291.5 256L399.2 148.2C473.2 74.1 507.5 39.2 508.9 36.3C511.7 30.7 512.5 24.5 511.1 19.4C507.3 5.29999 493.5 -2.60001 479.4 1.49999L473.5 3.19999L364.7 111.8L256 220.5L147.2 111.8C41.1 5.79999 38.4 3.09999 33.1 1.59999C26.5 -0.300008 23 -0.300008 16.7 1.59999Z" fill="#FF2626"/>
</svg>
