<svg width="34" height="34" viewBox="0 0 34 34" fill="none" xmlns="http://www.w3.org/2000/svg">
<path d="M12.8828 0.0730553C10.5121 0.318756 8.14805 1.24844 6.10938 2.74923C5.35235 3.3004 3.96446 4.67501 3.40664 5.41876C1.65352 7.73633 0.717192 10.366 0.617582 13.2481C0.557817 14.968 0.770317 16.4422 1.30157 18.0492C1.96563 20.0481 3.10782 21.8875 4.62188 23.4016C6.83985 25.6195 9.64219 26.9809 12.7699 27.366C13.6133 27.4656 15.7648 27.4125 16.5684 27.2664C18.4344 26.9277 20.0945 26.2902 21.602 25.3473L22.1797 24.9754L26.257 29.2121C28.4949 31.5363 30.4207 33.5219 30.5336 33.6148C31.2508 34.2125 32.4859 34.0465 33.0305 33.2828C33.3094 32.8977 33.3891 32.6453 33.3957 32.1938C33.409 31.4766 33.3625 31.4168 29.0527 26.9477C26.9012 24.7164 25.0684 22.8039 24.9887 22.7043L24.8359 22.525L25.1945 22.0734C27.5984 18.9856 28.5348 14.9281 27.7512 10.957C27.3594 8.97149 26.3301 6.79337 25.0152 5.15977C22.0801 1.50743 17.518 -0.39843 12.8828 0.0730553ZM15.6055 3.67891C19.9152 4.25665 23.3285 7.41094 24.2383 11.6609C24.4242 12.5043 24.4906 14.1977 24.3711 15.0012C24.0457 17.3121 23.0695 19.2844 21.4758 20.8781C19.9418 22.4188 18.0359 23.3883 15.8711 23.7469C15.1473 23.8664 13.5535 23.8664 12.7766 23.7469C9.97422 23.3219 7.4375 21.6949 5.87696 19.3242C5.31914 18.4809 5.02032 17.8633 4.71485 16.9402C4.37618 15.9375 4.24336 15.1871 4.20352 14.0582C3.98438 8.39376 8.55313 3.63907 14.2441 3.59258C14.6094 3.59258 15.2203 3.63243 15.6055 3.67891Z" fill="black"/>
</svg>
